<?xml version="1.0" standalone="no"?>
<!DOCTYPE svg PUBLIC "-//W3C//DTD SVG 20010904//EN"
 "http://www.w3.org/TR/2001/REC-SVG-20010904/DTD/svg10.dtd">
<svg version="1.0" xmlns="http://www.w3.org/2000/svg"
 width="80.000000pt" height="80.000000pt" viewBox="0 0 80.000000 80.000000"
 preserveAspectRatio="xMidYMid meet">
<metadata>
Created by potrace 1.14, written by Peter Selinger 2001-2017
</metadata>
<g transform="translate(0.000000,80.000000) scale(0.100000,-0.100000)"
fill="#000000" stroke="none">
<path d="M305 656 c-28 -14 -26 -14 55 -14 103 0 179 15 89 17 -31 0 -69 3
-85 6 -16 3 -42 -1 -59 -9z"/>
<path d="M209 603 c-13 -15 -5 -16 110 -10 68 4 158 8 200 9 l76 1 -65 7 c-36
4 -120 8 -186 9 -102 1 -124 -2 -135 -16z"/>
<path d="M173 568 c-7 -7 -23 -38 -37 -68 -36 -77 -36 -176 -1 -247 15 -28 32
-57 40 -63 10 -9 72 -9 237 -3 215 8 219 8 113 14 -60 4 -164 7 -230 8 -170 2
-128 20 50 22 77 0 165 4 195 9 47 6 38 8 -65 10 -66 1 -165 5 -220 9 -93 6
-84 7 135 16 214 9 226 10 140 16 -52 4 -146 7 -207 8 -163 1 -146 21 20 22
72 1 164 5 202 9 l70 7 -101 1 c-55 1 -157 5 -225 9 l-124 8 90 6 c50 4 146 8
215 9 105 2 116 4 70 10 -30 5 -111 9 -180 10 -208 3 -181 16 50 26 l215 9
-115 6 c-63 3 -171 8 -240 9 -110 3 -118 4 -65 10 33 4 121 8 195 9 184 2 209
20 30 22 -74 1 -164 4 -200 8 -55 5 -42 7 95 14 88 4 192 8 230 9 66 1 65 2
-30 8 -55 4 -154 9 -220 10 -151 3 -98 18 70 20 61 1 128 5 150 9 34 7 27 9
-46 10 -47 0 -133 4 -190 7 -84 6 -107 4 -116 -8z"/>
<path d="M212 154 c16 -16 33 -18 145 -15 158 3 243 18 112 20 -47 1 -128 4
-180 7 -91 6 -93 6 -77 -12z"/>
<path d="M290 105 c27 -15 106 -18 180 -6 l45 7 -70 7 c-38 4 -95 7 -125 7
-53 -1 -54 -1 -30 -15z"/>
</g>
</svg>
